<svg xmlns='http://www.w3.org/2000/svg' width='1024' height='1024' viewBox='0 0 800 800'><rect width='800' height='800' fill='#F5F7F7'/><g stroke-linecap='round' stroke-linejoin='round'><g transform='translate(0 -45)'><polygon points="257,264.76 223.5,322.78 156.5,322.78 123,264.76 156.5,206.74 223.5,206.74" fill="#FFF1CC" stroke="#D69A13" stroke-width="5"/><polygon points="257,386 223.5,444.02 156.5,444.02 123,386 156.5,327.98 223.5,327.98" fill="#FFF1CC" stroke="#D69A13" stroke-width="5"/><polygon points="257,507.24 223.5,565.26 156.5,565.26 123,507.24 156.5,449.22 223.5,449.22" fill="#FFF1CC" stroke="#D69A13" stroke-width="5"/><polygon points="362,204.14 328.5,262.16 261.5,262.16 228,204.14 261.5,146.12 328.5,146.12" fill="#FFF1CC" stroke="#D69A13" stroke-width="5"/><polygon points="362,325.38 328.5,383.4 261.5,383.4 228,325.38 261.5,267.36 328.5,267.36" fill="#DEF0ED" stroke="#83BDB6" stroke-width="3"/><polygon points="362,446.62 328.5,504.64 261.5,504.64 228,446.62 261.5,388.6 328.5,388.6" fill="#DEF0ED" stroke="#83BDB6" stroke-width="3"/><polygon points="362,567.86 328.5,625.88 261.5,625.88 228,567.86 261.5,509.84 328.5,509.84" fill="#FFF1CC" stroke="#D69A13" stroke-width="5"/><polygon points="467,143.52 433.5,201.54 366.5,201.54 333,143.52 366.5,85.5 433.5,85.5" fill="#FFF1CC" stroke="#D69A13" stroke-width="5"/><polygon points="467,264.76 433.5,322.78 366.5,322.78 333,264.76 366.5,206.74 433.5,206.74" fill="#DEF0ED" stroke="#83BDB6" stroke-width="3"/><polygon points="467,386 433.5,444.02 366.5,444.02 333,386 366.5,327.98 433.5,327.98" fill="#DEF0ED" stroke="#83BDB6" stroke-width="3"/><polygon points="467,507.24 433.5,565.26 366.5,565.26 333,507.24 366.5,449.22 433.5,449.22" fill="#DEF0ED" stroke="#83BDB6" stroke-width="3"/><polygon points="467,628.48 433.5,686.5 366.5,686.5 333,628.48 366.5,570.46 433.5,570.46" fill="#FFF1CC" stroke="#D69A13" stroke-width="5"/><polygon points="572,204.14 538.5,262.16 471.5,262.16 438,204.14 471.5,146.12 538.5,146.12" fill="#FFF1CC" stroke="#D69A13" stroke-width="5"/><polygon points="572,325.38 538.5,383.4 471.5,383.4 438,325.38 471.5,267.36 538.5,267.36" fill="#DEF0ED" stroke="#83BDB6" stroke-width="3"/><polygon points="572,446.62 538.5,504.64 471.5,504.64 438,446.62 471.5,388.6 538.5,388.6" fill="#DEF0ED" stroke="#83BDB6" stroke-width="3"/><polygon points="572,567.86 538.5,625.88 471.5,625.88 438,567.86 471.5,509.84 538.5,509.84" fill="#FFF1CC" stroke="#D69A13" stroke-width="5"/><polygon points="677,264.76 643.5,322.78 576.5,322.78 543,264.76 576.5,206.74 643.5,206.74" fill="#FFF1CC" stroke="#D69A13" stroke-width="5"/><polygon points="677,386 643.5,444.02 576.5,444.02 543,386 576.5,327.98 643.5,327.98" fill="#FFF1CC" stroke="#D69A13" stroke-width="5"/><polygon points="677,507.24 643.5,565.26 576.5,565.26 543,507.24 576.5,449.22 643.5,449.22" fill="#FFF1CC" stroke="#D69A13" stroke-width="5"/><circle cx='400' cy='386' r='37' fill='#168D87' stroke='#18383E' stroke-width='5'/><circle cx='400' cy='386' r='13' fill='#FFFFFF' stroke='none' stroke-width='0'/><circle cx='400' cy='386' r='92' fill='none' stroke='#18383E' stroke-width='7'/><path d='M400 274 L400 306' fill='none' stroke='#18383E' stroke-width='7' stroke-dasharray=''/><path d='M480 386 L512 386' fill='none' stroke='#18383E' stroke-width='7' stroke-dasharray=''/><path d='M400 466 L400 498' fill='none' stroke='#18383E' stroke-width='7' stroke-dasharray=''/><path d='M288 386 L320 386' fill='none' stroke='#18383E' stroke-width='7' stroke-dasharray=''/></g><path d='M264 711 L273 711' fill='none' stroke='#18383E' stroke-width='12' stroke-dasharray=''/><path d='M256.68 728.68 L263.04 735.04' fill='none' stroke='#18383E' stroke-width='12' stroke-dasharray=''/><path d='M239 736 L239 745' fill='none' stroke='#18383E' stroke-width='12' stroke-dasharray=''/><path d='M221.32 728.68 L214.96 735.04' fill='none' stroke='#18383E' stroke-width='12' stroke-dasharray=''/><path d='M214 711 L205 711' fill='none' stroke='#18383E' stroke-width='12' stroke-dasharray=''/><path d='M221.32 693.32 L214.96 686.96' fill='none' stroke='#18383E' stroke-width='12' stroke-dasharray=''/><path d='M239 686 L239 677' fill='none' stroke='#18383E' stroke-width='12' stroke-dasharray=''/><path d='M256.68 693.32 L263.04 686.96' fill='none' stroke='#18383E' stroke-width='12' stroke-dasharray=''/><circle cx='239' cy='711' r='25' fill='#E4ECEC' stroke='#18383E' stroke-width='6'/><path d='M228 711 L250 711' fill='none' stroke='#168D87' stroke-width='6' stroke-dasharray=''/><path d='M239 700 L239 722' fill='none' stroke='#168D87' stroke-width='6' stroke-dasharray=''/><text xml:space='preserve' x='457' y='698' fill='#18383E' font-size='45' text-anchor='middle' font-family='Noto Sans SC, Microsoft YaHei, sans-serif' font-weight='700'>射程 +1</text><text xml:space='preserve' x='457' y='750' fill='#168D87' font-size='31' text-anchor='middle' font-family='Noto Sans SC, Microsoft YaHei, sans-serif' font-weight='700'>永久</text></g></svg>